/vscmnt/brussel_pixiu_data/_data_brussel/112/vsc11236/PredSimResults/SUBJ10opt3D/trackIG/worker_09.mot
version=1
nRows=4
nColumns=50
inDegrees=yes
endheader
                time	         pelvis_tilt	         pelvis_list	     pelvis_rotation	           pelvis_tx	           pelvis_ty	           pelvis_tz	       hip_flexion_r	     hip_adduction_r	      hip_rotation_r	        knee_angle_r	       ankle_angle_r	         mtp_angle_r	       hip_flexion_l	     hip_adduction_l	      hip_rotation_l	        knee_angle_l	       ankle_angle_l	         mtp_angle_l	    lumbar_extension	      lumbar_bending	     lumbar_rotation	 ercspn_r/activation	 intobl_r/activation	 extobl_r/activation	    abd_r/activation	    add_r/activation	hamstrings_r/activation	bifemsh_r/activation	glut_max_r/activation	iliopsoas_r/activation	rect_fem_r/activation	  vasti_r/activation	gastroc_r/activation	 soleus_r/activation	tib_ant_r/activation	 ercspn_l/activation	 intobl_l/activation	 extobl_l/activation	    abd_l/activation	    add_l/activation	hamstrings_l/activation	bifemsh_l/activation	glut_max_l/activation	iliopsoas_l/activation	rect_fem_l/activation	  vasti_l/activation	gastroc_l/activation	 soleus_l/activation	tib_ant_l/activation	
          0.00000000	         -5.59485272	         -1.60266497	          7.95614084	          0.00000000	          0.81695056	         -0.01060457	         33.57661512	         -1.07628461	         -6.58062095	         -7.38776869	          4.11798968	          0.28108857	        -16.76146052	         -1.31685975	          0.87774577	         -6.84087110	          5.16412300	         31.01405459	         -7.03493462	          0.53551708	         -7.09631734	          0.12557036	          0.15003370	          0.00999999	          0.01034302	          0.16487409	          0.14406197	          0.30701621	          0.03502769	          0.09325018	          0.00999999	          0.00999999	          0.02210688	          0.00999999	          0.32296055	          0.09321372	          0.00999999	          0.00999999	          0.04233970	          0.00999999	          0.01812830	          0.24438669	          0.01609594	          0.37771661	          0.00999999	          0.00999999	          0.30117757	          0.24769248	          0.02271641	
          0.01031643	         -5.61366970	         -1.58187961	          8.04773598	          0.01678769	          0.81554930	         -0.01060523	         33.41973560	         -0.88815697	         -6.37038447	         -8.96253109	          3.78800433	          0.27736523	        -16.68389612	         -1.42759048	          0.56786481	         -8.96231568	          4.22983414	         32.68906919	         -6.84702370	          0.95079659	         -7.35491783	          0.10714737	          0.12802159	          0.00999999	          0.00999999	          0.22785178	          0.12292600	          0.26197250	          0.09266660	          0.07956903	          0.00999999	          0.00999999	          0.01886349	          0.01235125	          0.35402740	          0.13250820	          0.00999999	          0.00999999	          0.03612785	          0.04597631	          0.03420967	          0.20853164	          0.01373443	          0.35157915	          0.00999999	          0.00999999	          0.25699048	          0.23066223	          0.01938358	
          0.02063287	         -5.61990906	         -1.57719287	          8.10125905	          0.03385411	          0.81425356	         -0.01055032	         33.06771566	         -0.73977654	         -6.02548611	        -10.40583866	          3.35956367	          0.26474367	        -16.44559403	         -1.56020669	          0.21895208	        -11.40881580	          3.22462680	         34.13960539	         -6.63835616	          1.38617110	         -7.58113613	          0.10244624	          0.10923898	          0.00999999	          0.06115023	          0.19442264	          0.10821565	          0.22353736	          0.13091522	          0.06789511	          0.00999999	          0.00999999	          0.01609594	          0.01053914	          0.46629112	          0.15198098	          0.00999999	          0.00999999	          0.03082738	          0.03923093	          0.02919062	          0.17793704	          0.01171939	          0.29999742	          0.00999999	          0.00999999	          0.21928627	          0.21408685	          0.01653973	
          0.03094930	         -5.61748741	         -1.57119003	          8.11098336	          0.05095425	          0.81322266	         -0.01037128	         32.63092507	         -0.58602468	         -5.73779266	        -11.66958051	          2.74481888	          0.25166377	        -15.96863311	         -1.70147704	         -0.16283858	        -14.27107657	          2.13617860	         35.22702573	         -6.43804096	          1.81193444	         -7.77155457	          0.12024971	          0.09321204	          0.00999999	          0.11288201	          0.20747098	          0.09233886	          0.19074121	          0.15937579	          0.05793392	          0.00999999	          0.00999999	          0.01373443	          0.00999999	          0.53789968	          0.17498609	          0.00999999	          0.00999999	          0.02630456	          0.03347518	          0.02490794	          0.15183111	          0.00999999	          0.25598348	          0.00999999	          0.00999999	          0.18711381	          0.18310930	          0.01411312	
